<svg width="147" height="29" viewBox="0 0 147 29" fill="none" xmlns="http://www.w3.org/2000/svg">
<path d="M10.7411 12.8067H3.58951V5.05444H0.160645V23.5629H3.58951V16.0044H10.7411V23.5629H14.17V5.05444H10.7411V12.8067Z" fill="white"/>
<path d="M25.1426 17.5549C25.1426 19.1053 23.869 20.3651 22.3015 20.3651C20.7341 20.3651 19.4605 19.1053 19.4605 17.5549V9.60886H16.2275V17.5549C16.2275 20.8496 18.9706 23.5629 22.3015 23.5629C25.6324 23.5629 28.3755 20.8496 28.3755 17.5549V9.60886H25.1426V17.5549Z" fill="white"/>
<path d="M49.1443 10.481C49.1443 8.83361 50.2219 8.34911 51.3975 8.34911C52.3772 8.34911 53.6508 9.02744 54.4345 9.89956L56.5898 7.38009C55.5122 5.92655 53.3569 4.95752 51.5935 4.95752C48.0666 4.95752 45.5195 6.99248 45.5195 10.3841C45.5195 16.6828 53.2589 14.6478 53.2589 18.1363C53.2589 19.2022 52.1813 20.1712 51.0057 20.1712C49.0463 20.1712 48.4585 19.2022 47.5768 18.2332L45.2256 20.7526C46.6951 22.5938 48.5565 23.4659 50.8097 23.4659C54.1406 23.4659 56.8837 21.431 56.8837 18.1363C56.8837 11.3531 49.1443 13.4849 49.1443 10.481Z" fill="white"/>
<path d="M94.5034 18.5239V13.0004H97.4425V10.1903H94.5034V6.41107L91.2705 7.86461V19.2022C91.2705 22.1093 93.3278 23.5628 96.0709 23.5628C96.4628 23.5628 97.0506 23.5628 97.3445 23.4659L98.1282 20.5589C97.7364 20.5589 97.3445 20.6558 96.9526 20.6558C95.0912 20.5589 94.5034 19.7836 94.5034 18.5239Z" fill="white"/>
<path d="M37.4863 9.70575C35.9188 9.70575 34.7432 10.1903 33.6656 11.2562V5.15131H30.4326V16.392C30.4326 20.6557 33.5676 23.4659 36.9965 23.4659C40.8172 23.4659 44.2461 20.5589 44.2461 16.5858C44.1481 12.7097 41.1111 9.70575 37.4863 9.70575ZM37.3883 20.365C35.331 20.365 33.6656 18.7177 33.6656 16.6827C33.6656 14.6478 35.331 13.0004 37.3883 13.0004C39.4456 13.0004 41.1111 14.6478 41.1111 16.6827C41.1111 18.7177 39.4456 20.365 37.3883 20.365Z" fill="white"/>
<path d="M72.6567 16.489C72.6567 12.5159 69.2278 9.60886 65.4071 9.60886C61.9782 9.60886 58.8433 12.5159 58.8433 16.6828V27.9235H62.0762V21.8186C63.1538 22.8845 64.2315 23.3691 65.8969 23.3691C69.5217 23.3691 72.6567 20.3651 72.6567 16.489ZM65.8969 20.0744C63.8396 20.0744 62.1742 18.427 62.1742 16.392C62.1742 14.3571 63.8396 12.7098 65.8969 12.7098C67.9543 12.7098 69.6197 14.3571 69.6197 16.392C69.6197 18.427 67.9543 20.0744 65.8969 20.0744Z" fill="white"/>
<path d="M83.139 9.41506V6.21725C84.0207 5.82964 84.6085 4.95753 84.6085 3.9885V3.89159C84.6085 2.53496 83.4329 1.37212 82.0614 1.37212H81.9634C80.5919 1.37212 79.4163 2.53496 79.4163 3.89159V3.9885C79.4163 4.95753 80.0041 5.82964 80.8858 6.21725V9.41506C79.7102 9.60887 78.5345 10.0934 77.5549 10.8686L68.6398 3.9885C68.7378 3.7947 68.7378 3.50398 68.7378 3.31017C68.7378 1.75973 67.4642 0.5 65.8967 0.5C64.3293 0.5 63.0557 1.75973 63.0557 3.31017C63.0557 4.86062 64.3293 6.12035 65.8967 6.12035C66.3866 6.12035 66.8764 6.02345 67.2683 5.73274L76.0854 12.5159C75.3016 13.6788 74.9097 14.9385 74.9097 16.392C74.9097 17.9425 75.3996 19.2991 76.1833 20.462L73.5382 23.0783C73.3423 22.9814 73.1463 22.9814 72.8524 22.9814C71.5788 22.9814 70.5012 24.0474 70.5012 25.3071C70.5012 26.5668 71.5788 27.6328 72.8524 27.6328C74.126 27.6328 75.2036 26.5668 75.2036 25.3071C75.2036 25.1133 75.2036 24.8226 75.1057 24.6288L77.7508 22.0124C78.9264 22.8845 80.4939 23.4659 82.0614 23.4659C85.9801 23.4659 89.213 20.2681 89.213 16.392C89.213 12.9035 86.5679 9.89957 83.139 9.41506ZM82.0614 19.9774C80.0041 19.9774 78.4366 18.3301 78.4366 16.392C78.4366 14.3571 80.102 12.8067 82.0614 12.8067C84.1187 12.8067 85.6862 14.454 85.6862 16.392C85.6862 18.427 84.1187 19.9774 82.0614 19.9774Z" fill="white"/>
<path d="M120.269 12.7097C120.073 12.5159 119.877 12.419 119.681 12.3221C119.485 12.2252 119.191 12.1283 118.897 12.1283C118.603 12.1283 118.309 12.2252 118.113 12.3221C117.917 12.419 117.623 12.6128 117.525 12.7097C117.33 12.9036 117.232 13.0973 117.134 13.388C117.036 13.6788 117.036 13.9695 117.036 14.2602C117.036 14.5509 117.036 14.8416 117.134 15.1323C117.232 15.423 117.33 15.6168 117.525 15.8106C117.721 16.0044 117.917 16.1013 118.113 16.2951C118.309 16.392 118.603 16.4889 118.897 16.4889C119.191 16.4889 119.485 16.392 119.681 16.2951C119.877 16.1982 120.171 16.0044 120.269 15.8106C120.367 15.6168 120.562 15.423 120.66 15.1323C120.758 14.8416 120.856 14.5509 120.856 14.2602C120.856 13.9695 120.856 13.6788 120.66 13.388C120.562 13.0973 120.465 12.9036 120.269 12.7097Z" fill="white"/>
<path d="M143.683 4.56992H107.925C106.259 4.56992 104.986 5.82965 104.986 7.477V21.1403C104.986 22.6907 106.259 24.0473 107.925 24.0473H143.683C145.348 24.0473 146.622 22.6907 146.622 21.1403V7.477C146.622 5.82965 145.251 4.56992 143.683 4.56992ZM114.587 12.2252H112.627V17.6518H110.962V12.2252H109.003V10.7717H114.587V12.2252ZM122.326 15.7137C122.13 16.1982 121.836 16.5858 121.542 16.8765C121.248 17.1672 120.759 17.458 120.367 17.6518C119.975 17.8456 119.387 17.9425 118.897 17.9425C118.407 17.9425 117.82 17.8456 117.428 17.6518C116.938 17.458 116.546 17.2642 116.252 16.8765C115.958 16.5858 115.664 16.1982 115.468 15.7137C115.272 15.2292 115.174 14.7447 115.174 14.2602C115.174 13.6788 115.272 13.1943 115.468 12.8066C115.664 12.3221 115.958 12.0314 116.252 11.6438C116.546 11.3531 117.036 11.0624 117.428 10.9655C117.918 10.7717 118.407 10.6748 118.897 10.6748C119.387 10.6748 119.975 10.7717 120.367 10.9655C120.759 11.1593 121.248 11.3531 121.542 11.6438C121.836 11.9345 122.13 12.3221 122.326 12.8066C122.522 13.2912 122.62 13.7757 122.62 14.2602C122.62 14.7447 122.522 15.2292 122.326 15.7137ZM130.751 15.7137C130.555 16.1982 130.261 16.5858 129.968 16.8765C129.674 17.1672 129.184 17.458 128.792 17.6518C128.4 17.8456 127.812 17.9425 127.322 17.9425C126.833 17.9425 126.245 17.8456 125.853 17.6518C125.461 17.458 124.971 17.2642 124.677 16.8765C124.383 16.5858 124.09 16.1982 123.894 15.7137C123.698 15.2292 123.6 14.7447 123.6 14.2602C123.6 13.6788 123.698 13.1943 123.894 12.8066C124.09 12.3221 124.383 12.0314 124.677 11.6438C124.971 11.3531 125.461 11.0624 125.853 10.9655C126.245 10.8686 126.833 10.6748 127.322 10.6748C127.812 10.6748 128.4 10.7717 128.792 10.9655C129.184 11.1593 129.674 11.3531 129.968 11.6438C130.261 11.9345 130.555 12.3221 130.751 12.8066C130.947 13.2912 131.045 13.7757 131.045 14.2602C131.045 14.7447 130.947 15.2292 130.751 15.7137ZM136.629 17.6518H132.221V10.7717H133.886V16.1982H136.531V17.6518H136.629ZM139.274 13.0004C139.274 13.0973 139.372 13.0973 139.47 13.1943C139.568 13.2912 139.666 13.2911 139.764 13.388C139.862 13.388 140.058 13.485 140.156 13.5819C140.352 13.6788 140.646 13.7756 140.94 13.8726C141.234 13.9695 141.43 14.0664 141.626 14.2602C141.822 14.454 142.018 14.6478 142.116 14.8416C142.214 15.0354 142.311 15.3261 142.311 15.7137C142.311 16.1013 142.214 16.4889 142.116 16.7796C141.92 17.0703 141.724 17.2642 141.528 17.458C141.234 17.6518 141.038 17.7487 140.646 17.8456C140.352 17.9425 139.96 17.9425 139.666 17.9425C139.177 17.9425 138.687 17.8456 138.197 17.6518C137.707 17.458 137.315 17.2642 137.021 16.8765L138.099 15.8106C138.295 16.0044 138.491 16.1982 138.785 16.2951C139.079 16.392 139.372 16.4889 139.568 16.4889C139.666 16.4889 139.764 16.4889 139.96 16.4889C140.058 16.4889 140.156 16.392 140.254 16.392C140.352 16.2951 140.45 16.2951 140.45 16.1982C140.548 16.1013 140.548 16.0044 140.548 15.8106C140.548 15.7137 140.548 15.6168 140.45 15.5199C140.352 15.423 140.254 15.3261 140.156 15.2292C140.058 15.1323 139.862 15.1323 139.666 15.0354C139.47 14.9385 139.274 14.9385 139.079 14.8416C138.883 14.7447 138.687 14.6478 138.393 14.5509C138.197 14.454 138.001 14.3571 137.805 14.1633C137.609 13.9695 137.511 13.8726 137.413 13.5819C137.315 13.3881 137.217 13.0974 137.217 12.8066C137.217 12.419 137.315 12.1283 137.413 11.8376C137.609 11.5469 137.805 11.3531 138.001 11.1593C138.295 10.9655 138.589 10.8686 138.883 10.7717C139.177 10.6748 139.568 10.6748 139.862 10.6748C140.254 10.6748 140.646 10.7717 141.038 10.8686C141.43 10.9655 141.822 11.2562 142.116 11.45L141.038 12.5159C140.94 12.3221 140.744 12.2252 140.45 12.1283C140.254 12.0314 139.96 11.9345 139.764 11.9345C139.666 11.9345 139.568 11.9345 139.47 11.9345C139.372 11.9345 139.274 12.0314 139.177 12.0314C139.079 12.1283 138.981 12.1283 138.981 12.2252C138.883 12.3221 138.883 12.419 138.883 12.5159C139.274 12.8066 139.274 12.9035 139.274 13.0004Z" fill="white"/>
<path d="M128.694 12.7097C128.498 12.5159 128.302 12.419 128.106 12.3221C127.91 12.2252 127.616 12.1283 127.322 12.1283C127.028 12.1283 126.735 12.2252 126.539 12.3221C126.343 12.419 126.049 12.6128 125.951 12.7097C125.755 12.9036 125.657 13.0973 125.559 13.388C125.461 13.6788 125.461 13.9695 125.461 14.2602C125.461 14.5509 125.461 14.8416 125.559 15.1323C125.657 15.423 125.755 15.6168 125.951 15.8106C126.147 16.0044 126.343 16.1013 126.539 16.2951C126.735 16.392 127.028 16.4889 127.322 16.4889C127.616 16.4889 127.91 16.392 128.106 16.2951C128.302 16.1982 128.596 16.0044 128.694 15.8106C128.89 15.6168 128.988 15.423 129.086 15.1323C129.184 14.8416 129.282 14.5509 129.282 14.2602C129.282 13.9695 129.282 13.6788 129.086 13.388C128.988 13.0973 128.89 12.9036 128.694 12.7097Z" fill="white"/>
</svg>
